/* XPM */
static char *_e245be087ed41a1d37aa07b19da0636zvzIjlDRTuayRoh6[] = {
/* columns rows colors chars-per-pixel */
"64 63 4 1 ",
"  c black",
". c #990030",
"X c #C70240",
"o c white",
/* pixels */
"                                                                ",
"                                                                ",
"                                                                ",
"                                                                ",
"    XXXXXXXXXXX    XXXXXXXXXXX    XXXXXXXXXXX    XXXXXXXXXXX    ",
"    XXXXXXXXXXX    XXXXXXXXXXX    XXXXXXXXXXX    XXXXXXXXXXX    ",
"    XXXXXXXXXXX    XXXXXXXXXXX    XXXXXXXXXXX    XXXXXXXXXXX    ",
"    XXXXXXXXXXX    XXXXXXXXXXX    XXXXXXXXXXX    XXXXXXXXXXX    ",
"    XXXX.......    XXXX.......    XXXX.......    XXXX.......    ",
"    XXXX.......    XXXX.......    XXXX.......    XXXX.......    ",
"    XXXX.......    XXXX.......    XXXX.......    XXXX.......    ",
"    XXXX.......    XXXX.......    XXXX.......    XXXX.......    ",
"    XXXX.......    XXXX.......    XXXX.......    XXXX.......    ",
"    XXXX.......    XXXX.......    XXXX.......    XXXX.......    ",
"    XXXX.......    XXXX.......    XXXX.......    XXXX.......    ",
"    XXXX.......    XXXX.......    XXXX.......    XXXX.......    ",
"    XXXX.......    XXXX.......    XXXX.......    XXXX.......    ",
"    XXXX.......    XXXX.......    XXXX.......    XXXX.......    ",
"    XXXX.......    XXXX.......    XXXX.......    XXXX.......    ",
"                                                                ",
"                                                                ",
"                                                                ",
"                                                                ",
"    oooooooooooooooooooooooooooooooooooooooooooooooooooooooo    ",
"    oooooooooooooooooooooooooooooooooooooooooooooooooooooooo    ",
"    oooooooooooooooooooooooooooooooooooooooooooooooooooooooo    ",
"    oooo           oooo   oooooooo    ooo            ooooooo    ",
"    oooo           oooo   oooooooo    ooo            ooooooo    ",
"    oooo           oooo   oooooooo    ooo            ooooooo    ",
"    oooo           oooo   oooooooo    ooo            ooooooo    ",
"    ooooooo    oooooooo       oooo    ooooooo    ooooooooooo    ",
"    ooooooo    oooooooo       oooo    ooooooo    ooooooooooo    ",
"    ooooooo    oooooooo       oooo    ooooooo    ooooooooooo    ",
"    ooooooo    oooooooo       oooo    ooooooo    ooooooooooo    ",
"    ooooooo    oooooooo   oooo        ooooooo    ooooooooooo    ",
"    ooooooo    oooooooo   oooo        ooooooo    ooooooooooo    ",
"    ooooooo    oooooooo   oooo        ooooooo    ooooooooooo    ",
"    ooooooo    oooooooo   oooo        ooooooo    ooooooooooo    ",
"    ooooooo    oooooooo   oooooooo    ooooooo    ooooooooooo    ",
"    ooooooo    oooooooo   oooooooo    ooooooo    ooooooooooo    ",
"    ooooooo    oooooooo   oooooooo    ooooooo    ooooooooooo    ",
"    oooooooooooooooooooooooooooooooooooooooooooooooooooooooo    ",
"    oooooooooooooooooooooooooooooooooooooooooooooooooooooooo    ",
"    oooooooooooooooooooooooooooooooooooooooooooooooooooooooo    ",
"    oooooooooooooooooooooooooooooooooooooooooooooooooooooooo    ",
"                                                                ",
"                                                                ",
"                                                                ",
"                                                                ",
"    XXXX.......    XXXX.......    XXXX.......    XXXX.......    ",
"    XXXX.......    XXXX.......    XXXX.......    XXXX.......    ",
"    XXXX.......    XXXX.......    XXXX.......    XXXX.......    ",
"    XXXX.......    XXXX.......    XXXX.......    XXXX.......    ",
"    XXXX.......    XXXX.......    XXXX.......    XXXX.......    ",
"    XXXX.......    XXXX.......    XXXX.......    XXXX.......    ",
"    XXXX.......    XXXX.......    XXXX.......    XXXX.......    ",
"    XXXX.......    XXXX.......    XXXX.......    XXXX.......    ",
"    XXXX.......    XXXX.......    XXXX.......    XXXX.......    ",
"    XXXX.......    XXXX.......    XXXX.......    XXXX.......    ",
"    XXXX.......    XXXX.......    XXXX.......    XXXX.......    ",
"                                                                ",
"                                                                ",
"                                                                "
};
