/* XPM */
static char *_2af089151a349d0c26d94497f7ae9f26Ht0Inq2PKw84uFp[] = {
/* columns rows colors chars-per-pixel */
"64 63 5 1 ",
"  c black",
". c gray43",
"X c gray55",
"o c gray61",
"O c #B4B4B4",
/* pixels */
"                                                                ",
"                                                                ",
"                                                                ",
"                                                                ",
"    oooo...............oooXXXX...........XXXXXXXX.......XXXX    ",
"    oooo...............oooXXXX...........XXXXXXXX.......XXXX    ",
"    oooo...............oooXXXX...........XXXXXXXX.......XXXX    ",
"    oooo...............oooXXXX...........XXXXXXXX.......XXXX    ",
"    oooooooooooXXXXXXXX...oooooooo.......oooooooooooooooXXXX    ",
"    oooooooooooXXXXXXXX...oooooooo.......oooooooooooooooXXXX    ",
"    oooooooooooXXXXXXXX...oooooooo.......oooooooooooooooXXXX    ",
"    ooooOOOOOOOooooXXXX...OOOOoooooooo...ooooOOOOOOOO.......    ",
"    ooooOOOOOOOooooXXXX...OOOOoooooooo...ooooOOOOOOOO.......    ",
"    ooooOOOOOOOooooXXXX...OOOOoooooooo...ooooOOOOOOOO.......    ",
"    ooooOOOOOOOooooXXXX...OOOOoooooooo...ooooOOOOOOOO.......    ",
"    ooooOOOOOOOOOOO...........OOOOoooo.......OOOOXXXX.......    ",
"    ooooOOOOOOOOOOO...........OOOOoooo.......OOOOXXXX.......    ",
"    ooooOOOOOOOOOOO...........OOOOoooo.......OOOOXXXX.......    ",
"    ooooOOOOOOOOOOO...........OOOOoooo.......OOOOXXXX.......    ",
"    ooooooo........OOOOXXX....OOOOXXXX......................    ",
"    ooooooo........OOOOXXX....OOOOXXXX......................    ",
"    ooooooo........OOOOXXX....OOOOXXXX......................    ",
"    ooooooo........OOOOXXX....OOOOXXXX......................    ",
"    oooooooooooooooOOOOOOO...............ooooXXXX....ooo....    ",
"    oooooooooooooooOOOOOOO...............ooooXXXX....ooo....    ",
"    oooooooooooooooOOOOOOO...............ooooXXXX....ooo....    ",
"    .......ooooOOOOOOOOooo............oooooooOOOOOOOOooo....    ",
"    .......ooooOOOOOOOOooo............oooooooOOOOOOOOooo....    ",
"    .......ooooOOOOOOOOooo............oooooooOOOOOOOOooo....    ",
"    .......ooooOOOOOOOOooo............oooooooOOOOOOOOooo....    ",
"    .......oooooooooooooooXXXX...........ooooOOOOOOOOOOOXXXX    ",
"    .......oooooooooooooooXXXX...........ooooOOOOOOOOOOOXXXX    ",
"    .......oooooooooooooooXXXX...........ooooOOOOOOOOOOOXXXX    ",
"    .......oooooooooooooooXXXX...........ooooOOOOOOOOOOOXXXX    ",
"    oooo...........ooooXXX....XXXX.......ooooooooOOOOOOOXXXX    ",
"    oooo...........ooooXXX....XXXX.......ooooooooOOOOOOOXXXX    ",
"    oooo...........ooooXXX....XXXX.......ooooooooOOOOOOOXXXX    ",
"    oooo...........ooooXXX....XXXX.......ooooooooOOOOOOOXXXX    ",
"    ooooooo...............oooooooo...........ooooooooooo....    ",
"    ooooooo...............oooooooo...........ooooooooooo....    ",
"    ooooooo...............oooooooo...........ooooooooooo....    ",
"    OOOOOOOOOOOXXXX....ooooooooooooooo......................    ",
"    OOOOOOOOOOOXXXX....ooooooooooooooo......................    ",
"    OOOOOOOOOOOXXXX....ooooooooooooooo......................    ",
"    OOOOOOOOOOOXXXX....ooooooooooooooo......................    ",
"    OOOOXXX............OOOOOOOooooXXXX...XXXXXXXXXXXX.......    ",
"    OOOOXXX............OOOOOOOooooXXXX...XXXXXXXXXXXX.......    ",
"    OOOOXXX............OOOOOOOooooXXXX...XXXXXXXXXXXX.......    ",
"    OOOOXXX............OOOOOOOooooXXXX...XXXXXXXXXXXX.......    ",
"    XXXX...XXXXXXXXXXXX...OOOOOOOOXXXX...oooooooooooooooXXXX    ",
"    XXXX...XXXXXXXXXXXX...OOOOOOOOXXXX...oooooooooooooooXXXX    ",
"    XXXX...XXXXXXXXXXXX...OOOOOOOOXXXX...oooooooooooooooXXXX    ",
"    XXXX...XXXXXXXXXXXX...OOOOOOOOXXXX...oooooooooooooooXXXX    ",
"    ....oooooooooooXXXXXXX............oooooooOOOOOOOOoooXXXX    ",
"    ....oooooooooooXXXXXXX............oooooooOOOOOOOOoooXXXX    ",
"    ....oooooooooooXXXXXXX............oooooooOOOOOOOOoooXXXX    ",
"    oooooooooooOOOOOOOOoooXXXXXXXX....OOOOOOOOOOOOOOOOOOoooo    ",
"    oooooooooooOOOOOOOOoooXXXXXXXX....OOOOOOOOOOOOOOOOOOoooo    ",
"    oooooooooooOOOOOOOOoooXXXXXXXX....OOOOOOOOOOOOOOOOOOoooo    ",
"    oooooooooooOOOOOOOOoooXXXXXXXX....OOOOOOOOOOOOOOOOOOoooo    ",
"                                                                ",
"                                                                ",
"                                                                "
};
