/* XPM */
static char *_0be22b6ee0a4aa89593ed46ca50a263azB79fjrNEKzEMcG[] = {
/* columns rows colors chars-per-pixel */
"64 63 8 1 ",
"  c black",
". c #693119",
"X c gray37",
"o c gray40",
"O c #804329",
"+ c #9C5232",
"@ c #AD5F3D",
"# c #BD6A2B",
/* pixels */
"                                                                ",
"                                                                ",
"                                                                ",
"                                                                ",
"    XXXX###++++++++########OOOO...@@@@@@@@@@@@OOOO#######@@@@   ",
"    XXXX###++++++++########OOOO...@@@@@@@@@@@@OOOO#######@@@@   ",
"    XXXX###++++++++########OOOO...@@@@@@@@@@@@OOOO#######@@@@   ",
"    XXXX###++++++++########OOOO...@@@@@@@@@@@@OOOO#######@@@@   ",
"    OOOO...@@@@OOOO@@@@........OOO@@@@OOOOXXXXOOOO+++++++@@@@   ",
"    OOOO...@@@@OOOO@@@@........OOO@@@@OOOOXXXXOOOO+++++++@@@@   ",
"    OOOO...@@@@OOOO@@@@........OOO@@@@OOOOXXXXOOOO+++++++@@@@   ",
"    ....OOO....@@@@OOOOOOOO+++++++OOOOOOOOOOOO@@@@@@@@OOOOOOO   ",
"    ....OOO....@@@@OOOOOOOO+++++++OOOOOOOOOOOO@@@@@@@@OOOOOOO   ",
"    ....OOO....@@@@OOOOOOOO+++++++OOOOOOOOOOOO@@@@@@@@OOOOOOO   ",
"    ....OOO....@@@@OOOOOOOO+++++++OOOOOOOOOOOO@@@@@@@@OOOOOOO   ",
"    @@@@+++....OOOOOOOO++++OOOO#######OOOO########@@@@@@@....   ",
"    @@@@+++....OOOOOOOO++++OOOO#######OOOO########@@@@@@@....   ",
"    @@@@+++....OOOOOOOO++++OOOO#######OOOO########@@@@@@@....   ",
"    @@@@+++....OOOOOOOO++++OOOO#######OOOO########@@@@@@@....   ",
"    @@@@OOO++++++++####OOOO####OOO++++++++++++........OOO@@@@   ",
"    @@@@OOO++++++++####OOOO####OOO++++++++++++........OOO@@@@   ",
"    @@@@OOO++++++++####OOOO####OOO++++++++++++........OOO@@@@   ",
"    @@@@OOO++++++++####OOOO####OOO++++++++++++........OOO@@@@   ",
"    .......OOOO########@@@@@@@@OOOOOOO++++....OOOO#######OOOO   ",
"    .......OOOO########@@@@@@@@OOOOOOO++++....OOOO#######OOOO   ",
"    .......OOOO########@@@@@@@@OOOOOOO++++....OOOO#######OOOO   ",
"    ####OOOoooo@@@@OOOO++++XXXXOOO@@@@@@@@OOOOOOOOOOOO+++@@@@   ",
"    ####OOOoooo@@@@OOOO++++XXXXOOO@@@@@@@@OOOOOOOOOOOO+++@@@@   ",
"    ####OOOoooo@@@@OOOO++++XXXXOOO@@@@@@@@OOOOOOOOOOOO+++@@@@   ",
"    ####OOOoooo@@@@OOOO++++XXXXOOO@@@@@@@@OOOOOOOOOOOO+++@@@@   ",
"    ++++OOO####@@@@@@@@OOOO++++OOOOOOOOOOO@@@@OOOO+++++++XXXX   ",
"    ++++OOO####@@@@@@@@OOOO++++OOOOOOOOOOO@@@@OOOO+++++++XXXX   ",
"    ++++OOO####@@@@@@@@OOOO++++OOOOOOOOOOO@@@@OOOO+++++++XXXX   ",
"    ++++OOO####@@@@@@@@OOOO++++OOOOOOOOOOO@@@@OOOO+++++++XXXX   ",
"    +++++++OOOO####OOOO########OOOOOOO........OOOO#######@@@@   ",
"    +++++++OOOO####OOOO########OOOOOOO........OOOO#######@@@@   ",
"    +++++++OOOO####OOOO########OOOOOOO........OOOO#######@@@@   ",
"    +++++++OOOO####OOOO########OOOOOOO........OOOO#######@@@@   ",
"    OOOO+++OOOO....OOOO++++++++@@@@@@@####@@@@@@@@OOOO#######   ",
"    OOOO+++OOOO....OOOO++++++++@@@@@@@####@@@@@@@@OOOO#######   ",
"    OOOO+++OOOO....OOOO++++++++@@@@@@@####@@@@@@@@OOOO#######   ",
"    @@@@OOO....OOOO####@@@@OOOO+++@@@@OOOO####@@@@####OOO++++   ",
"    @@@@OOO....OOOO####@@@@OOOO+++@@@@OOOO####@@@@####OOO++++   ",
"    @@@@OOO....OOOO####@@@@OOOO+++@@@@OOOO####@@@@####OOO++++   ",
"    @@@@OOO....OOOO####@@@@OOOO+++@@@@OOOO####@@@@####OOO++++   ",
"    @@@@###OOOO@@@@@@@@OOOOOOOOOOO++++++++OOOOOOOOOOOO+++++++   ",
"    @@@@###OOOO@@@@@@@@OOOOOOOOOOO++++++++OOOOOOOOOOOO+++++++   ",
"    @@@@###OOOO@@@@@@@@OOOOOOOOOOO++++++++OOOOOOOOOOOO+++++++   ",
"    @@@@###OOOO@@@@@@@@OOOOOOOOOOO++++++++OOOOOOOOOOOO+++++++   ",
"    ####+++OOOO####++++OOOOOOOO@@@@@@@OOOOOOOOooooOOOO...OOOO   ",
"    ####+++OOOO####++++OOOOOOOO@@@@@@@OOOOOOOOooooOOOO...OOOO   ",
"    ####+++OOOO####++++OOOOOOOO@@@@@@@OOOOOOOOooooOOOO...OOOO   ",
"    ####+++OOOO####++++OOOOOOOO@@@@@@@OOOOOOOOooooOOOO...OOOO   ",
"    ++++@@@########++++........OOOOOOO@@@@@@@@OOOOOOOO...@@@@   ",
"    ++++@@@########++++........OOOOOOO@@@@@@@@OOOOOOOO...@@@@   ",
"    ++++@@@########++++........OOOOOOO@@@@@@@@OOOOOOOO...@@@@   ",
"    ####ooo@@@@OOOO....XXXX@@@@OOO++++++++########@@@@@@@....   ",
"    ####ooo@@@@OOOO....XXXX@@@@OOO++++++++########@@@@@@@....   ",
"    ####ooo@@@@OOOO....XXXX@@@@OOO++++++++########@@@@@@@....   ",
"    ####ooo@@@@OOOO....XXXX@@@@OOO++++++++########@@@@@@@....   ",
"                                                                ",
"                                                                ",
"                                                                "
};
