/* XPM */
static char *_788d9ffd6de4ebcb6e8d2cd58bf446c23V2m0qiVtNxr8tI[] = {
/* columns rows colors chars-per-pixel */
"64 63 12 1 ",
"  c black",
". c #693119",
"X c #117A2F",
"o c gray37",
"O c gray40",
"+ c #804329",
"@ c #9C5232",
"# c #AD5F3D",
"$ c #BD6A2B",
"% c #3C8C23",
"& c #0AA134",
"* c #22B14C",
/* pixels */
"                                                                ",
"                                                                ",
"                                                                ",
"                                                                ",
"    &&&&&&&%%%%&&&&%%%%&&&&&&&****%%%%&&&****%%%%&&&&%%%&&&&    ",
"    &&&&&&&%%%%&&&&%%%%&&&&&&&****%%%%&&&****%%%%&&&&%%%&&&&    ",
"    &&&&&&&%%%%&&&&%%%%&&&&&&&****%%%%&&&****%%%%&&&&%%%&&&&    ",
"    XXXX%%%&&&&%%%%&&&&   %%%%&&&&****&&&%%%%&&&&%%%%*******    ",
"    XXXX%%%&&&&%%%%&&&&   %%%%&&&&****&&&%%%%&&&&%%%%*******    ",
"    XXXX%%%&&&&%%%%&&&&   %%%%&&&&****&&&%%%%&&&&%%%%*******    ",
"    XXXX%%%&&&&%%%%&&&&   %%%%&&&&****&&&%%%%&&&&%%%%*******    ",
"    XXXX   XXXX&&&&%%%%   XXXX    XXXX&&&XXXX&&&&    XXX%%%%    ",
"    XXXX   XXXX&&&&%%%%   XXXX    XXXX&&&XXXX&&&&    XXX%%%%    ",
"    XXXX   XXXX&&&&%%%%   XXXX    XXXX&&&XXXX&&&&    XXX%%%%    ",
"    XXXX   XXXX&&&&%%%%   XXXX    XXXX&&&XXXX&&&&    XXX%%%%    ",
"        @@@        XXXX           %%%%   XXXX    ####           ",
"        @@@        XXXX           %%%%   XXXX    ####           ",
"        @@@        XXXX           %%%%   XXXX    ####           ",
"        @@@        XXXX           %%%%   XXXX    ####           ",
"    ####+++@@@@@@@@    +++$$$$++++    @@@    ........+++####    ",
"    ####+++@@@@@@@@    +++$$$$++++    @@@    ........+++####    ",
"    ####+++@@@@@@@@    +++$$$$++++    @@@    ........+++####    ",
"    .......++++$$$$$$$$#######++++++++@@@....++++$$$$$$$++++    ",
"    .......++++$$$$$$$$#######++++++++@@@....++++$$$$$$$++++    ",
"    .......++++$$$$$$$$#######++++++++@@@....++++$$$$$$$++++    ",
"    .......++++$$$$$$$$#######++++++++@@@....++++$$$$$$$++++    ",
"    $$$$+++OOOO####++++@@@oooo++++#######++++++++++++@@@####    ",
"    $$$$+++OOOO####++++@@@oooo++++#######++++++++++++@@@####    ",
"    $$$$+++OOOO####++++@@@oooo++++#######++++++++++++@@@####    ",
"    $$$$+++OOOO####++++@@@oooo++++#######++++++++++++@@@####    ",
"    @@@@+++$$$$########+++@@@@+++++++++++####++++@@@@@@@oooo    ",
"    @@@@+++$$$$########+++@@@@+++++++++++####++++@@@@@@@oooo    ",
"    @@@@+++$$$$########+++@@@@+++++++++++####++++@@@@@@@oooo    ",
"    @@@@@@@++++$$$$++++$$$$$$$++++++++.......++++$$$$$$$####    ",
"    @@@@@@@++++$$$$++++$$$$$$$++++++++.......++++$$$$$$$####    ",
"    @@@@@@@++++$$$$++++$$$$$$$++++++++.......++++$$$$$$$####    ",
"    @@@@@@@++++$$$$++++$$$$$$$++++++++.......++++$$$$$$$####    ",
"    ++++@@@++++....++++@@@@@@@########$$$########++++$$$$$$$    ",
"    ++++@@@++++....++++@@@@@@@########$$$########++++$$$$$$$    ",
"    ++++@@@++++....++++@@@@@@@########$$$########++++$$$$$$$    ",
"    ++++@@@++++....++++@@@@@@@########$$$########++++$$$$$$$    ",
"    ####+++....++++$$$$###++++@@@@####+++$$$$####$$$$+++@@@@    ",
"    ####+++....++++$$$$###++++@@@@####+++$$$$####$$$$+++@@@@    ",
"    ####+++....++++$$$$###++++@@@@####+++$$$$####$$$$+++@@@@    ",
"    ####$$$++++########+++++++++++@@@@@@@++++++++++++@@@@@@@    ",
"    ####$$$++++########+++++++++++@@@@@@@++++++++++++@@@@@@@    ",
"    ####$$$++++########+++++++++++@@@@@@@++++++++++++@@@@@@@    ",
"    ####$$$++++########+++++++++++@@@@@@@++++++++++++@@@@@@@    ",
"    $$$$@@@++++$$$$@@@@+++++++########+++++++OOOO++++...++++    ",
"    $$$$@@@++++$$$$@@@@+++++++########+++++++OOOO++++...++++    ",
"    $$$$@@@++++$$$$@@@@+++++++########+++++++OOOO++++...++++    ",
"    $$$$@@@++++$$$$@@@@+++++++########+++++++OOOO++++...++++    ",
"    @@@@###$$$$$$$$@@@@.......++++++++#######++++++++...####    ",
"    @@@@###$$$$$$$$@@@@.......++++++++#######++++++++...####    ",
"    @@@@###$$$$$$$$@@@@.......++++++++#######++++++++...####    ",
"    @@@@###$$$$$$$$@@@@.......++++++++#######++++++++...####    ",
"    $$$$OOO####++++....ooo####++++@@@@@@@$$$$$$$$#######....    ",
"    $$$$OOO####++++....ooo####++++@@@@@@@$$$$$$$$#######....    ",
"    $$$$OOO####++++....ooo####++++@@@@@@@$$$$$$$$#######....    ",
"                                                                ",
"                                                                ",
"                                                                ",
"                                                                "
};
